<svg width="14" height="14" viewBox="0 0 14 14" fill="none" xmlns="http://www.w3.org/2000/svg">
<g id="general">
<path id="magnifier" d="M13.3798 11.9399L11.2398 9.93992C12.1492 8.72762 12.5697 7.21775 12.4177 5.70989C12.2658 4.20203 11.5526 2.80638 10.4196 1.79987C9.28662 0.793359 7.81666 0.249546 6.3014 0.276335C4.78615 0.303124 3.33633 0.898557 2.23962 1.94449C1.14292 2.99042 0.479484 4.4104 0.380952 5.92269C0.28242 7.43498 0.755995 8.92905 1.70771 10.1084C2.65942 11.2878 4.01972 12.0664 5.51869 12.2895C7.01767 12.5127 8.54576 12.1642 9.79978 11.3133L11.9998 13.3999C12.1826 13.5671 12.4189 13.6639 12.6664 13.6733C12.8033 13.6744 12.9389 13.6465 13.0641 13.5913C13.1894 13.5361 13.3015 13.455 13.3931 13.3533C13.4858 13.26 13.559 13.1492 13.6085 13.0275C13.6581 12.9057 13.6829 12.7753 13.6817 12.6438C13.6805 12.5123 13.6531 12.3824 13.6013 12.2616C13.5495 12.1408 13.4742 12.0314 13.3798 11.9399ZM6.39978 10.5533C5.55648 10.5519 4.73248 10.3007 4.03186 9.83141C3.33123 9.36208 2.78539 8.69565 2.46329 7.91629C2.14118 7.13693 2.05725 6.2796 2.22209 5.45257C2.38693 4.62554 2.79316 3.86591 3.38946 3.2696C3.98576 2.6733 4.7454 2.26708 5.57243 2.10223C6.39946 1.93739 7.25679 2.02132 8.03615 2.34343C8.81551 2.66554 9.48194 3.21137 9.95127 3.912C10.4206 4.61263 10.6718 5.43662 10.6731 6.27992C10.6731 6.8411 10.5626 7.39679 10.3478 7.91525C10.1331 8.43372 9.81829 8.90481 9.42148 9.30162C9.02466 9.69844 8.55357 10.0132 8.03511 10.228C7.51665 10.4427 6.96096 10.5533 6.39978 10.5533Z" fill="#99A1B7"/>
</g>
</svg>
